<mxfile compressed="false" host="Chrome" modified="2020-08-05T20:21:30.390Z" agent="5.0 (X11; Linux x86_64) AppleWebKit/537.36 (KHTML, like Gecko) Chrome/83.0.4103.116 Safari/537.36" version="13.4.0" etag="xET6E50T98evtrThazx5" type="device">
  <diagram id="lXzvkM9uSlQvV6uT09WV" name="Strona-1">
    <mxGraphModel dx="1417" dy="839" grid="1" gridSize="10" guides="1" tooltips="1" connect="1" arrows="1" fold="1" page="1" pageScale="1" pageWidth="827" pageHeight="1169" background="none" math="0" shadow="1">
      <root>
        <mxCell id="0" />
        <mxCell id="1" parent="0" />
        <mxCell id="t5OhKQRQ5g1ediq62rsj-1" value="Pupil&#39;s account created" style="whiteSpace=wrap;html=1;aspect=fixed;fillColor=#ffe6cc;strokeColor=#d79b00;" vertex="1" parent="1">
          <mxGeometry x="100" y="360" width="80" height="80" as="geometry" />
        </mxCell>
        <mxCell id="t5OhKQRQ5g1ediq62rsj-2" value="" style="ellipse;shape=cloud;whiteSpace=wrap;html=1;fillColor=#f5f5f5;strokeColor=#666666;fontColor=#333333;" vertex="1" parent="1">
          <mxGeometry x="20" y="10" width="500" height="250" as="geometry" />
        </mxCell>
        <mxCell id="t5OhKQRQ5g1ediq62rsj-3" value="Event" style="whiteSpace=wrap;html=1;aspect=fixed;fillColor=#ffe6cc;strokeColor=#d79b00;" vertex="1" parent="1">
          <mxGeometry x="120" y="90" width="70" height="70" as="geometry" />
        </mxCell>
        <mxCell id="t5OhKQRQ5g1ediq62rsj-5" value="Access data sent" style="whiteSpace=wrap;html=1;aspect=fixed;fillColor=#ffe6cc;strokeColor=#d79b00;" vertex="1" parent="1">
          <mxGeometry x="200" y="360" width="80" height="80" as="geometry" />
        </mxCell>
        <mxCell id="t5OhKQRQ5g1ediq62rsj-6" value="The application was printed" style="whiteSpace=wrap;html=1;aspect=fixed;fillColor=#ffe6cc;strokeColor=#d79b00;" vertex="1" parent="1">
          <mxGeometry x="300" y="360" width="80" height="80" as="geometry" />
        </mxCell>
        <mxCell id="t5OhKQRQ5g1ediq62rsj-9" value="Primary school leaving certificate provided" style="whiteSpace=wrap;html=1;aspect=fixed;fillColor=#ffe6cc;strokeColor=#d79b00;" vertex="1" parent="1">
          <mxGeometry x="400" y="360" width="80" height="80" as="geometry" />
        </mxCell>
        <mxCell id="t5OhKQRQ5g1ediq62rsj-10" value="Primary school leaving certificate confirmed (original provided)" style="whiteSpace=wrap;html=1;aspect=fixed;fillColor=#ffe6cc;strokeColor=#d79b00;" vertex="1" parent="1">
          <mxGeometry x="500" y="360" width="80" height="80" as="geometry" />
        </mxCell>
        <mxCell id="t5OhKQRQ5g1ediq62rsj-11" value="Final exam result provided" style="whiteSpace=wrap;html=1;aspect=fixed;fillColor=#ffe6cc;strokeColor=#d79b00;" vertex="1" parent="1">
          <mxGeometry x="100" y="470" width="80" height="80" as="geometry" />
        </mxCell>
        <mxCell id="t5OhKQRQ5g1ediq62rsj-12" value="Final exam result confirmed (original provided )" style="whiteSpace=wrap;html=1;aspect=fixed;fillColor=#ffe6cc;strokeColor=#d79b00;" vertex="1" parent="1">
          <mxGeometry x="200" y="470" width="80" height="80" as="geometry" />
        </mxCell>
        <mxCell id="t5OhKQRQ5g1ediq62rsj-13" value="Personal data entered" style="whiteSpace=wrap;html=1;aspect=fixed;fillColor=#ffe6cc;strokeColor=#d79b00;" vertex="1" parent="1">
          <mxGeometry x="300" y="470" width="80" height="80" as="geometry" />
        </mxCell>
        <mxCell id="t5OhKQRQ5g1ediq62rsj-14" value="Preferred schools and grades were selected" style="whiteSpace=wrap;html=1;aspect=fixed;fillColor=#ffe6cc;strokeColor=#d79b00;" vertex="1" parent="1">
          <mxGeometry x="400" y="470" width="80" height="80" as="geometry" />
        </mxCell>
        <mxCell id="t5OhKQRQ5g1ediq62rsj-15" value="Pupils qualification has been made" style="whiteSpace=wrap;html=1;aspect=fixed;fillColor=#ffe6cc;strokeColor=#d79b00;" vertex="1" parent="1">
          <mxGeometry x="500" y="470" width="80" height="80" as="geometry" />
        </mxCell>
        <mxCell id="t5OhKQRQ5g1ediq62rsj-16" value="The will to learn was confirmed" style="whiteSpace=wrap;html=1;aspect=fixed;fillColor=#ffe6cc;strokeColor=#d79b00;" vertex="1" parent="1">
          <mxGeometry x="100" y="570" width="80" height="80" as="geometry" />
        </mxCell>
        <mxCell id="t5OhKQRQ5g1ediq62rsj-17" value="Results have been published" style="whiteSpace=wrap;html=1;aspect=fixed;fillColor=#ffe6cc;strokeColor=#d79b00;" vertex="1" parent="1">
          <mxGeometry x="200" y="570" width="80" height="80" as="geometry" />
        </mxCell>
        <mxCell id="t5OhKQRQ5g1ediq62rsj-18" value="Exam results were entered" style="whiteSpace=wrap;html=1;aspect=fixed;fillColor=#ffe6cc;strokeColor=#d79b00;" vertex="1" parent="1">
          <mxGeometry x="300" y="570" width="80" height="80" as="geometry" />
        </mxCell>
        <mxCell id="t5OhKQRQ5g1ediq62rsj-19" value="Grades from the final certificate entered" style="whiteSpace=wrap;html=1;aspect=fixed;fillColor=#ffe6cc;strokeColor=#d79b00;" vertex="1" parent="1">
          <mxGeometry x="400" y="570" width="80" height="80" as="geometry" />
        </mxCell>
        <mxCell id="t5OhKQRQ5g1ediq62rsj-20" value="Command" style="whiteSpace=wrap;html=1;aspect=fixed;fillColor=#dae8fc;strokeColor=#6c8ebf;" vertex="1" parent="1">
          <mxGeometry x="210" y="60" width="70" height="70" as="geometry" />
        </mxCell>
        <mxCell id="t5OhKQRQ5g1ediq62rsj-21" value="View" style="whiteSpace=wrap;html=1;aspect=fixed;fillColor=#d5e8d4;strokeColor=#82b366;" vertex="1" parent="1">
          <mxGeometry x="305" y="70" width="70" height="70" as="geometry" />
        </mxCell>
        <mxCell id="t5OhKQRQ5g1ediq62rsj-22" value="Problem" style="whiteSpace=wrap;html=1;aspect=fixed;fillColor=#fa6800;strokeColor=#C73500;fontColor=#ffffff;" vertex="1" parent="1">
          <mxGeometry x="390" y="120" width="70" height="70" as="geometry" />
        </mxCell>
        <mxCell id="t5OhKQRQ5g1ediq62rsj-24" value="System" style="whiteSpace=wrap;html=1;aspect=fixed;fillColor=#f8cecc;strokeColor=#b85450;" vertex="1" parent="1">
          <mxGeometry x="305" y="150" width="70" height="70" as="geometry" />
        </mxCell>
        <mxCell id="t5OhKQRQ5g1ediq62rsj-27" value="HostSpot" style="whiteSpace=wrap;html=1;aspect=fixed;fillColor=#e1d5e7;strokeColor=#9673a6;" vertex="1" parent="1">
          <mxGeometry x="210" y="160" width="70" height="70" as="geometry" />
        </mxCell>
        <mxCell id="t5OhKQRQ5g1ediq62rsj-28" value="Summary report prepared" style="whiteSpace=wrap;html=1;aspect=fixed;fillColor=#ffe6cc;strokeColor=#d79b00;" vertex="1" parent="1">
          <mxGeometry x="500" y="570" width="80" height="80" as="geometry" />
        </mxCell>
        <mxCell id="t5OhKQRQ5g1ediq62rsj-29" value="Lists of students admitted to the school published" style="whiteSpace=wrap;html=1;aspect=fixed;fillColor=#ffe6cc;strokeColor=#d79b00;" vertex="1" parent="1">
          <mxGeometry x="100" y="680" width="80" height="80" as="geometry" />
        </mxCell>
      </root>
    </mxGraphModel>
  </diagram>
</mxfile>
